<svg version="1.0" xmlns="http://www.w3.org/2000/svg" width="1470.667" height="1706.667" viewBox="0 0 1103 1280"><g fill="#fff"><path d="M315 .7C229.6 6.8 143.4 43.7 89.9 97c-5.8 5.8-13.3 14.1-16.8 18.5C7.4 198.2-16.7 342 12.1 479c5.6 26.8 7.5 32.2 30.3 89 11.7 28.9 16.8 47.6 23.5 85C77 714.9 82.6 791.9 80.2 849.5c-1.5 38.2-3.9 47.3-27.9 109.5-25 64.6-31.1 85.1-33.2 111.2-2 24.6 2.6 44.9 14.1 61.5 8.9 13 28.1 29.9 47.3 41.6 21.3 12.9 89.3 44.4 122.6 56.7 73.8 27.3 146.7 42 239.9 48.1 25.6 1.7 86.5 1.7 100.5.1 55.7-6.5 102.2-20.1 128.8-37.6C690 1229 695 1218.5 697 1189c1.5-21.6 2.7-34.4 6-67 6.1-60.7 9.8-81.9 18.6-109.5 5-15.5 12-29.6 27.6-55.5 33.2-55.2 69.1-108.5 142.8-211.5 43.1-60.4 62.3-87.6 84.5-120 10.9-16 27-39.3 35.8-51.9 42.7-61.3 61.6-93.6 74.2-127.4 18.9-50.7 21.7-123 7-181.3-6-23.8-14.9-45.1-26.1-62.2-8.1-12.4-24.6-29.1-38.4-38.9-21.8-15.5-50.6-26.5-81.5-31.3-14.2-2.2-47.1-3-63.5-1.6-25.8 2.3-72 11.8-72 14.8 0 .7-1.2 1.5-2.7 1.9-1.6.3-3.5.8-4.3 1-1.1.2-2.3-1.8-4.3-7.2-3.7-9.8-13-23.6-21-31.1-16.5-15.4-37.7-23.9-69.2-27.8-11.6-1.5-21.8-1.7-60-1.6-60.3.2-74.4-1.1-99-8.9-16.8-5.4-28.4-10.5-69.5-30.6-47.9-23.4-59.7-28.3-82-33.9-24.7-6.2-57.4-8.8-85-6.8zM359.5 26c33 3 58 9.4 88 22.5 7.2 3.2 18.5 7.9 25.3 10.6 22.3 8.9 35.1 16.1 44.5 24.7 4.6 4.4 6 7.2 3.5 7.2-.7 0-5.6 2-10.9 4.3-64.7 29.2-124.2 122.1-140.9 219.8-3.4 20.1-6.6 72.5-5.7 94.4.8 20.5 4.2 31.9 12.5 41.6 3 3.4 13.2 11.3 13.8 10.6.1-.1-.4-5.6-1.2-12.2-2.1-17.4-2.9-68.6-1.5-87 4.2-53.8 13.9-97 30.6-136 19.9-46.5 49.9-82.9 85-103.2 7.9-4.6 24.8-12 34.5-15.1 66.8-21.4 145.4-19.5 196.9 4.9C776 133 796.7 164.6 804.2 220c1.8 13.3 1.5 50.8-.6 70-3.2 29.3-10.2 51.4-24.8 78.3-10.2 18.7-15.9 27.4-45.8 69.2-21.6 30.2-30.1 43.4-39.3 61.3-9 17.4-9.3 16.8 4.6 11.1 31.4-12.9 68.7-58.2 97.8-118.4 8.8-18.1 12.4-27 18-43.5 11-32.4 12.8-46.4 10.5-84.6-2.9-48.1-2-60.7 5.4-76.1 8.8-17.9 25.6-27.8 59-34.8 15.4-3.2 41.1-4.4 54.1-2.6 42.7 6.1 75.7 30.1 98.6 71.6 12.6 22.8 21.1 49.3 26.2 81.6 4.5 28.3 5.4 61.4 2.2 78.4-8.2 42.9-28.5 97.3-50.4 135-5.8 10-62.7 101.5-76.5 123C907 696 880.1 733.2 847 773c-8.8 10.4-19.4 23.6-23.7 29.3-28.9 38.3-45.7 56.3-63.1 67.8-16.9 11.2-30.8 11.2-42.6.1-9.5-9-9.9-18.8-1.6-35.3 5-9.8 24.9-41.7 50-79.9 12.4-19 26.3-40.1 30.7-47 8.4-13 29.3-47.6 29.3-48.5 0-.8-12 5.5-16.9 8.8-10.9 7.5-23.6 21-34.3 36.7-3.6 5.2-13.9 22.1-22.8 37.5-23.3 40.2-31.3 51.7-46.4 66.8-8.8 8.7-19.9 16.5-28.3 19.8-8.2 3.2-25.2 3.3-37.3.1-22.5-6-43.2-20.8-51.9-37.2-4-7.6-5.2-13.5-5.2-26.5-.1-25.4 8.1-52.5 27.2-90.4 8.9-17.6 9.7-19.5 8.1-20.7-1.4-1-2.2-.7-5.2 1.6-14.3 11.3-23.4 27.4-34.5 61-7.5 22.8-10.7 30.9-15.7 39.3-5 8.6-14.8 18.6-21 21.5-11.4 5.3-27.8 4.7-54.8-1.8-9.1-2.2-24.8-5.7-35-7.9-27-5.8-39.3-10.5-48-18.7-9.1-8.5-11.1-17.9-10.3-48.1 1-34.8-2.6-69.2-10.9-105.6-2.9-12.5-3.4-13.8-5.2-13.5-2 .3-2.1.7-1.6 13.8 1 26.5.5 78.3-.8 90-2.9 25.6-9.1 44.2-16.9 51-4.4 3.9-13.3 8.1-22.3 10.5-10.1 2.6-36.1 3.2-49 1-12.6-2.1-23.6-5.6-31.6-10-6.3-3.5-12.8-9.9-14.4-13.9-.5-1.3-2.9-26.4-5.5-55.7-2.5-29.4-4.8-54.4-5.1-55.7-.3-1.5-1.2-2.2-2.8-2.2-2.6 0-3.4 2-6 15-1.7 8.8-2.3 15.9-3.6 45.5-1.7 36-5.2 47.8-17.8 59.6-11.3 10.7-26.5 17.1-35.5 15-9.7-2.3-14.2-8.9-18.3-27.1-1.1-4.8-1.7-17.4-2.4-49-1.1-54.5-2.9-66.9-18-126-3.3-12.9-7.2-28.1-8.6-33.8-2.5-9.5-2.8-10.2-4.8-9.6-1.1.4-2.2.7-2.3.8-.1.1 1.1 13.9 2.7 30.6 9.7 99.1 12.7 154.3 9.9 179.8-1.2 11.1-4.2 25.7-6.5 31-1.7 4.1-5.1 8.2-6.9 8.2-4.9 0-12.3-19-17.5-44.9-1.6-8-4.5-27.4-6.5-43.1-6.2-49.5-7.4-53.9-37.9-142.5-4.8-13.8-10.6-32.9-13-42.5C8.2 372.3 21.3 254.5 69.5 166c11.3-20.9 23.6-37.2 40.5-54 13.4-13.3 23.9-21.8 41.5-33.5 45.5-30.1 98-47.6 158-52.8 9.3-.8 39.8-.6 50 .3zm-109 737c71.7 2.1 113.8 6 165.5 15 77.7 13.7 142.5 34.5 201.2 64.6 11.2 5.7 31.1 15.8 44.3 22.3 36.4 18 47.6 24.9 59 36.6 17.2 17.6 16.6 30.2-3.2 64.5-8.9 15.5-11.7 21.4-15.1 32.1-13 40.7-20.9 94.8-23.1 157.7-.4 12.8-1 23.5-1.3 23.8-.3.3-7-2.7-14.8-6.6-82-41.1-185.7-73.9-285.5-90.4-118-19.5-232.8-17.7-326.5 5.3l-7.5 1.8-.4-2.1c-.5-3.3 1.8-18.9 5.1-33.6 3.7-16.3 9.1-33.6 21-66 18.8-51.2 23-64.8 28-91 1.6-8.7 2.1-17.2 2.8-48.5.9-40.8 1.3-44 6.7-55.1 6.4-13.2 24.1-23.5 48-28 18.8-3.5 40.6-4 95.8-2.4zm41 338.1c122.8 6.7 231.3 33.7 325.9 81 21.8 10.9 34.9 19.3 42 26.9 9.5 10.1 5.1 15.5-20.9 25.8-84.7 33.4-188.1 31.3-311.1-6.2-20.3-6.2-80.1-26.2-97.4-32.6-35.5-13.1-58.8-28.7-66.2-44.5-2.8-6-3-7.3-2.6-14.3 1.1-18.9 13.8-29.5 42.1-35.2 14.3-2.9 46.3-3.2 88.2-.9z"/><path d="M326 99.6c-13 2.3-25.9 7.8-36.7 15.7-36.1 26.7-66.9 82.3-72.4 130.7-2 18.2.3 32.6 7.4 44.5l4.1 7 1.7-13.9c3.9-31 11.6-56.6 25.5-84.7 23.8-47.9 58.1-80.3 95.5-90 4.9-1.3 8.9-2.6 8.9-3 0-.3-3.9-1.8-8.7-3.2-8.5-2.6-20.1-4-25.3-3.1zM922 225.6c0 .4 4.1 11 9 23.6 14 35.3 18.4 53.4 18.4 75.8 0 26.3-4.1 43.4-20.9 89.2-7.7 20.7-15.5 45.4-15.5 49 0 .7 3.9-2.6 8.6-7.2 23-22.8 38.6-58.8 44.5-102.8 6.5-48.6-3.5-91-27-114.2-7.4-7.3-17.1-14.9-17.1-13.4z"/></g></svg>